
<svg width="157" height="126" viewBox="0 0 157 126" fill="none" xmlns="http://www.w3.org/2000/svg">
<style>
        path {
            fill: #141414;
        }
        @media (prefers-color-scheme: dark) {
            path { fill: white; }
        }
    </style>
<path d="M78.4647 17.7405L139.971 116.255H16.9453L78.4647 17.7405ZM78.4655 0L0 125.651H156.914L78.4655 0Z" />
<path d="M78.4572 105.329C63.5372 105.329 51.3984 93.1906 51.3984 78.2706C51.3984 63.3507 63.5372 51.2119 78.4572 51.2119C93.3771 51.2119 105.516 63.3507 105.516 78.2706C105.516 93.1906 93.3771 105.329 78.4572 105.329ZM78.4572 60.608C68.7174 60.608 60.7945 68.5309 60.7945 78.2706C60.7945 88.0104 68.7174 95.9333 78.4572 95.9333C88.1969 95.9333 96.1198 88.0104 96.1198 78.2706C96.1198 68.5309 88.1969 60.608 78.4572 60.608Z" fill="white"/>
</svg>
