<svg id="Layer_2" data-name="Layer 2" xmlns="http://www.w3.org/2000/svg" viewBox="0 0 168.02588 168.02588">
  <defs>
    <style>
      .cls-1 {
        fill: #fff;
      }

      .cls-2 {
        fill: #231f20;
      }
    </style>
  </defs>
  <g id="Layer_1-2" data-name="Layer 1">
    <g>
      <circle class="cls-2" cx="84.01294" cy="84.01276" r="80.01291" transform="translate(-17.05453 146.47621) rotate(-76.71754)"/>
      <path class="cls-2" d="m84.01294,8c41.91357,0,76.01294,34.09924,76.01294,76.01294s-34.09937,76.01294-76.01294,76.01294S8,125.92664,8,84.01294,42.09937,8,84.01294,8m0-8C37.61377,0,0,37.61389,0,84.01294s37.61377,84.01294,84.01294,84.01294,84.01294-37.61389,84.01294-84.01294S130.41187,0,84.01294,0h0Z"/>
    </g>
    <g>
      <path class="cls-1" d="m84.02077,23.89255l56.61147,90.67402H27.3974L84.02077,23.89255h0Zm.00077-16.32866L11.80072,123.21484h144.42628L84.02154,7.56389h0Z"/>
      <path class="cls-1" d="m84.01424,103.59001c-13.73251,0-24.90524-11.17273-24.90524-24.90524s11.17273-24.90524,24.90524-24.90524,24.90524,11.17273,24.90524,24.90524-11.17273,24.90524-24.90524,24.90524Zm0-41.16221c-8.9646,0-16.25697,7.29237-16.25697,16.25697s7.29237,16.25697,16.25697,16.25697,16.25697-7.29237,16.25697-16.25697-7.29237-16.25697-16.25697-16.25697Z"/>
    </g>
  </g>
</svg>